<svg width="33" height="37" viewBox="0 0 33 37" fill="none" xmlns="http://www.w3.org/2000/svg">
<path d="M16.443 33.498C15.363 33.498 14.333 33.439 13.353 33.318C13.593 34.299 13.993 35.094 14.552 35.703C15.113 36.314 15.743 36.619 16.443 36.619C17.142 36.619 17.773 36.314 18.334 35.703C18.892 35.094 19.283 34.299 19.504 33.318C18.543 33.439 17.523 33.498 16.443 33.498ZM30.302 24.619H30.813C31.213 24.619 31.548 24.764 31.818 25.053C32.088 25.344 32.222 25.699 32.222 26.119C32.222 26.519 32.093 26.918 31.834 27.318C31.573 27.719 31.263 27.988 30.903 28.129C30.463 28.309 29.833 28.539 29.013 28.818C28.193 29.1 26.517 29.469 23.988 29.928C21.458 30.389 18.943 30.619 16.443 30.619C13.943 30.619 11.488 30.414 9.078 30.004C6.668 29.594 4.88198 29.1781 3.72198 28.7581L1.98297 28.158C1.62297 28.019 1.312 27.744 1.052 27.334C0.793002 26.924 0.664001 26.519 0.664001 26.119C0.664001 25.699 0.797993 25.344 1.06799 25.053C1.33799 24.764 1.672 24.619 2.073 24.619H2.58398L6.12299 19.428L8.013 9.61902C8.313 8.07802 9.07303 6.67797 10.293 5.41797C11.513 4.15797 12.953 3.32798 14.613 2.92798L14.073 1.96899C13.953 1.58999 13.983 1.26906 14.164 1.00806C14.343 0.748057 14.632 0.619019 15.033 0.619019H17.853C18.254 0.619019 18.543 0.72496 18.722 0.93396C18.903 1.14396 18.933 1.43899 18.813 1.81799L18.273 2.92798C19.933 3.30898 21.373 4.13505 22.593 5.40405C23.812 6.67405 24.573 8.07802 24.873 9.61902L26.763 19.428L30.302 24.619Z" fill="#221F1F"/>
</svg>
