<svg width="111" height="87" viewBox="0 0 111 87" fill="none" xmlns="http://www.w3.org/2000/svg">
<path d="M67.6361 37.1003H62.5954C62.4988 37.1003 62.4061 37.0619 62.3377 36.9936C62.2694 36.9252 62.231 36.8325 62.231 36.7359V22.66C62.231 20.7819 61.4849 18.9806 60.1568 17.6525C58.8287 16.3245 57.0275 15.5784 55.1493 15.5784H41.0735C40.9768 15.5784 40.8841 15.54 40.8158 15.4716C40.7474 15.4033 40.709 15.3106 40.709 15.2139V10.1733C40.709 5.22742 36.791 1.08704 31.8451 1.00139C30.6468 0.980341 29.4563 1.19814 28.3431 1.64208C27.2299 2.08602 26.2162 2.74722 25.3612 3.58708C24.5063 4.42695 23.8271 5.42868 23.3634 6.53382C22.8997 7.63895 22.6608 8.82537 22.6605 10.0238V15.2139C22.6605 15.3106 22.6221 15.4033 22.5537 15.4716C22.4854 15.54 22.3926 15.5784 22.296 15.5784H8.22015C6.30702 15.5841 4.4739 16.3467 3.12111 17.6995C1.76831 19.0523 1.00577 20.8854 1 22.7985V35.6242C1 35.7209 1.0384 35.8136 1.10675 35.8819C1.1751 35.9503 1.26781 35.9887 1.36447 35.9887H6.26841C11.6207 35.9887 16.0508 40.632 16.1255 45.9843C16.202 51.4276 11.8412 56.399 6.4142 56.399H1.36447C1.26781 56.399 1.1751 56.4374 1.10675 56.5058C1.0384 56.5741 1 56.6668 1 56.7635V69.5892C1.00577 71.5023 1.76831 73.3354 3.12111 74.6882C4.4739 76.041 6.30702 76.8036 8.22015 76.8093H21.0459C21.1425 76.8093 21.2352 76.7709 21.3036 76.7026C21.3719 76.6342 21.4103 76.5415 21.4103 76.4449V72.6307C21.4103 67.1126 25.9206 62.3617 31.4332 62.2324C36.9185 62.1048 41.8206 65.9336 41.8206 71.3951V76.4449C41.8206 76.5415 41.859 76.6342 41.9274 76.7026C41.9957 76.7709 42.0884 76.8093 42.1851 76.8093H55.1493C57.0275 76.8093 58.8287 76.0632 60.1568 74.7352C61.4849 73.4071 62.231 71.6059 62.231 69.7277V55.5134C62.231 55.4167 62.2694 55.324 62.3377 55.2556C62.4061 55.1873 62.4988 55.1489 62.5954 55.1489H67.7855C72.8206 55.1489 76.8098 51.0176 76.8098 45.9642C76.8098 40.9109 72.5819 37.1003 67.6361 37.1003Z" fill="#24F08A" fill-opacity="0.25" stroke="#24F08A" stroke-opacity="0.25" stroke-linecap="round" stroke-linejoin="round"/>
<path d="M84.3848 41.5667H79.3442C79.2475 41.5667 79.1548 41.5283 79.0865 41.4599C79.0181 41.3916 78.9797 41.2988 78.9797 41.2022V27.1263C78.9797 25.2482 78.2336 23.4469 76.9056 22.1189C75.5775 20.7908 73.7763 20.0447 71.8981 20.0447H57.8223C57.7256 20.0447 57.6329 20.0063 57.5645 19.9379C57.4962 19.8696 57.4578 19.7769 57.4578 19.6802V14.6396C57.4578 9.69375 53.5397 5.55337 48.5939 5.46772C47.3956 5.44667 46.2051 5.66446 45.0919 6.10841C43.9787 6.55235 42.965 7.21354 42.11 8.05341C41.2551 8.89328 40.5759 9.895 40.1122 11.0001C39.6485 12.1053 39.4095 13.2917 39.4092 14.4902V19.6802C39.4092 19.7769 39.3708 19.8696 39.3025 19.9379C39.2341 20.0063 39.1414 20.0447 39.0448 20.0447H24.9689C23.0558 20.0505 21.2227 20.813 19.8699 22.1658C18.5171 23.5186 17.7545 25.3517 17.7488 27.2648V40.0905C17.7488 40.1872 17.7872 40.2799 17.8555 40.3483C17.9239 40.4166 18.0166 40.455 18.1132 40.455H23.0172C28.3694 40.455 32.7996 45.0984 32.8743 50.4506C32.9508 55.894 28.5899 60.8653 23.163 60.8653H18.1132C18.0166 60.8653 17.9239 60.9037 17.8555 60.9721C17.7872 61.0404 17.7488 61.1331 17.7488 61.2298V74.0555C17.7545 75.9686 18.5171 77.8018 19.8699 79.1546C21.2227 80.5073 23.0558 81.2699 24.9689 81.2757H37.7946C37.8913 81.2757 37.984 81.2373 38.0523 81.1689C38.1207 81.1006 38.1591 81.0079 38.1591 80.9112V77.097C38.1591 71.5789 42.6694 66.8281 48.182 66.6987C53.6673 66.5711 58.5694 70.3999 58.5694 75.8615V80.9112C58.5694 81.0079 58.6078 81.1006 58.6762 81.1689C58.7445 81.2373 58.8372 81.2757 58.9339 81.2757H71.8981C73.7763 81.2757 75.5775 80.5296 76.9056 79.2015C78.2336 77.8734 78.9797 76.0722 78.9797 74.194V59.9797C78.9797 59.883 79.0181 59.7903 79.0865 59.722C79.1548 59.6536 79.2475 59.6152 79.3442 59.6152H84.5343C89.5694 59.6152 93.5585 55.4839 93.5585 50.4306C93.5585 45.3772 89.3307 41.5667 84.3848 41.5667Z" fill="#24F08A" fill-opacity="0.5" stroke="#24F08A" stroke-opacity="0.5" stroke-linecap="round" stroke-linejoin="round"/>
<path d="M100.659 46.1013H95.6181C95.5215 46.1013 95.4288 46.0629 95.3604 45.9946C95.2921 45.9262 95.2537 45.8335 95.2537 45.7369V31.661C95.2537 29.7829 94.5076 27.9816 93.1795 26.6535C91.8514 25.3255 90.0502 24.5794 88.172 24.5794H74.0962C73.9995 24.5794 73.9068 24.541 73.8385 24.4726C73.7701 24.4043 73.7317 24.3116 73.7317 24.2149V19.1743C73.7317 14.2284 69.8137 10.0881 64.8678 10.0024C63.6695 9.98135 62.479 10.1991 61.3658 10.6431C60.2526 11.087 59.2389 11.7482 58.3839 12.5881C57.529 13.428 56.8498 14.4297 56.3861 15.5348C55.9224 16.64 55.6835 17.8264 55.6832 19.0249V24.2149C55.6832 24.3116 55.6448 24.4043 55.5764 24.4726C55.5081 24.541 55.4154 24.5794 55.3187 24.5794H41.2429C39.3297 24.5851 37.4966 25.3477 36.1438 26.7005C34.791 28.0533 34.0285 29.8864 34.0227 31.7995V44.6252C34.0227 44.7219 34.0611 44.8146 34.1295 44.8829C34.1978 44.9513 34.2905 44.9897 34.3872 44.9897H39.2911C44.6434 44.9897 49.0735 49.6331 49.1482 54.9853C49.2247 60.4287 44.8639 65.4 39.4369 65.4H34.3872C34.2905 65.4 34.1978 65.4384 34.1295 65.5068C34.0611 65.5751 34.0227 65.6678 34.0227 65.7645V78.5902C34.0285 80.5033 34.791 82.3364 36.1438 83.6892C37.4966 85.042 39.3297 85.8046 41.2429 85.8103H54.0686C54.1652 85.8103 54.2579 85.7719 54.3263 85.7036C54.3946 85.6352 54.433 85.5425 54.433 85.4459V81.6317C54.433 76.1136 58.9433 71.3628 64.4559 71.2334C69.9412 71.1058 74.8433 74.9346 74.8433 80.3961V85.4459C74.8433 85.5425 74.8817 85.6352 74.9501 85.7036C75.0184 85.7719 75.1112 85.8103 75.2078 85.8103H88.172C90.0502 85.8103 91.8514 85.0642 93.1795 83.7362C94.5076 82.4081 95.2537 80.6069 95.2537 78.7287V64.5144C95.2537 64.4177 95.2921 64.325 95.3604 64.2566C95.4288 64.1883 95.5215 64.1499 95.6181 64.1499H100.808C105.843 64.1499 109.832 60.0186 109.832 54.9652C109.832 49.9119 105.605 46.1013 100.659 46.1013Z" fill="#24F08A" stroke="#24F08A" stroke-linecap="round" stroke-linejoin="round"/>
</svg>
