<svg width="80" height="100" viewBox="0 0 80 100" fill="none" xmlns="http://www.w3.org/2000/svg">
<path fill-rule="evenodd" clip-rule="evenodd" d="M30 0L20 10H0V20H80V10H60L50 0H30ZM75 30H5L10 100H70L75 30ZM21.0648 71.3107C20.3724 72.0503 19.631 72.8423 17.9123 72.8423C15.6898 72.8423 12.8438 70.5752 12.8438 66.7039C12.8438 62.8326 15.6898 60.5655 17.9123 60.5655C19.631 60.5655 20.3724 61.3576 21.0648 62.0972C21.178 62.2181 21.2899 62.3376 21.4045 62.4521C23.0668 64.1217 25.1114 63.4097 25.1114 60.719V48.2887H37.5324C40.2231 48.2887 40.9326 46.2426 39.2642 44.5791C39.1498 44.4644 39.0304 44.3524 38.9096 44.2391C38.1705 43.5462 37.3791 42.8042 37.3791 41.0843C37.3791 38.8602 39.6445 36.012 43.5129 36.012C47.3813 36.012 49.6467 38.8602 49.6467 41.0843C49.6467 42.8042 48.8553 43.5462 48.1162 44.2391C47.9954 44.3524 47.8759 44.4644 47.7616 44.5791C46.0932 46.2426 46.8047 48.2887 49.4934 48.2887H61.9144V60.719C61.9144 63.4117 59.8698 64.1217 58.2075 62.4521C58.0929 62.3376 57.981 62.2181 57.8678 62.0972C57.1754 61.3576 56.4339 60.5655 54.7153 60.5655C52.4928 60.5655 49.6467 62.8326 49.6467 66.7039C49.6467 70.5752 52.4928 72.8423 54.7153 72.8423C56.4339 72.8423 57.1754 72.0503 57.8678 71.3107C57.981 71.1897 58.0929 71.0702 58.2075 70.9558C59.8698 69.2861 61.9144 69.9982 61.9144 72.6889V85.1191H49.4934C46.8027 85.1191 46.0932 83.073 47.7616 81.4095C47.8759 81.2948 47.9954 81.1828 48.1162 81.0695C48.8553 80.3766 49.6467 79.6346 49.6467 77.9147C49.6467 75.6905 47.3813 72.8423 43.5129 72.8423C39.6445 72.8423 37.3791 75.6905 37.3791 77.9147C37.3791 79.6346 38.1705 80.3766 38.9096 81.0695C39.0304 81.1828 39.1498 81.2948 39.2642 81.4095C40.9326 83.073 40.2211 85.1191 37.5324 85.1191H25.1114V72.6889C25.1114 69.9962 23.0668 69.2861 21.4045 70.9558C21.2899 71.0702 21.178 71.1898 21.0648 71.3107Z" fill="black"/>
</svg>
