<svg width="37" height="37" viewBox="0 0 37 37" fill="none" xmlns="http://www.w3.org/2000/svg">
<path d="M36.443 32.329V36.619H0.442993V32.329L12.443 24.619V21.619C11.703 21.619 11.018 20.874 10.388 19.384C9.757 17.894 9.44299 16.639 9.44299 15.619V9.61899C9.44299 7.13999 10.323 5.01899 12.084 3.25899C13.843 1.49899 15.963 0.618988 18.443 0.618988C20.922 0.618988 23.043 1.49899 24.802 3.25899C26.562 5.01899 27.443 7.13999 27.443 9.61899V15.619C27.443 16.639 27.129 17.894 26.498 19.384C25.868 20.874 25.183 21.619 24.443 21.619V24.619L36.443 32.329Z" fill="#221F1F"/>
</svg>
